<?xml version="1.0" encoding="UTF-8" standalone="no"?>
<svg
   xmlns:dc="http://purl.org/dc/elements/1.1/"
   xmlns:cc="http://creativecommons.org/ns#"
   xmlns:rdf="http://www.w3.org/1999/02/22-rdf-syntax-ns#"
   xmlns:svg="http://www.w3.org/2000/svg"
   xmlns="http://www.w3.org/2000/svg"
   xmlns:xlink="http://www.w3.org/1999/xlink"
   xmlns:sodipodi="http://sodipodi.sourceforge.net/DTD/sodipodi-0.dtd"
   xmlns:inkscape="http://www.inkscape.org/namespaces/inkscape"
   width="1080"
   height="1080"
   viewBox="0 0 285.75001 285.75001"
   version="1.1"
   id="svg8"
   inkscape:version="1.0.1 (0767f8302a, 2020-10-17)"
   sodipodi:docname="flyer_fb_asistencia.svg">
  <defs
     id="defs2">
    <rect
       x="334.69742"
       y="92.373111"
       width="106.88978"
       height="15.04887"
       id="rect8366" />
    <rect
       x="313.62588"
       y="82.9949"
       width="99.519869"
       height="15.822031"
       id="rect8360" />
    <rect
       x="202.51099"
       y="0"
       width="130.92346"
       height="43.082855"
       id="rect8139" />
    <rect
       x="10.65936"
       y="261.07245"
       width="132.21563"
       height="21.721634"
       id="rect8073" />
    <rect
       x="35.340324"
       y="208.86031"
       width="218.89513"
       height="60.787771"
       id="rect8065" />
    <rect
       x="313.62588"
       y="82.9949"
       width="99.519869"
       height="15.822031"
       id="rect8374" />
  </defs>
  <sodipodi:namedview
     id="base"
     pagecolor="#ffffff"
     bordercolor="#666666"
     borderopacity="1.0"
     inkscape:pageopacity="0.0"
     inkscape:pageshadow="2"
     inkscape:zoom="0.7"
     inkscape:cx="399.37491"
     inkscape:cy="667.82616"
     inkscape:document-units="mm"
     inkscape:current-layer="layer1"
     inkscape:document-rotation="0"
     showgrid="false"
     units="px"
     inkscape:snap-grids="false"
     inkscape:snap-page="true"
     showguides="true"
     inkscape:guide-bbox="true"
     inkscape:snap-center="true"
     inkscape:window-width="1920"
     inkscape:window-height="1016"
     inkscape:window-x="0"
     inkscape:window-y="27"
     inkscape:window-maximized="1">
    <sodipodi:guide
       position="142.875,285.75001"
       orientation="-1,0"
       id="guide8069"
       inkscape:label=""
       inkscape:locked="true"
       inkscape:color="rgb(0,0,255)" />
  </sodipodi:namedview>
  <metadata
     id="metadata5">
    <rdf:RDF>
      <cc:Work
         rdf:about="">
        <dc:format>image/svg+xml</dc:format>
        <dc:type
           rdf:resource="http://purl.org/dc/dcmitype/StillImage" />
        <dc:title></dc:title>
      </cc:Work>
    </rdf:RDF>
  </metadata>
  <g
     inkscape:label="Capa 1"
     inkscape:groupmode="layer"
     id="layer1">
    <rect
       style="fill:#f5f5f5;fill-opacity:1;stroke:none;stroke-width:1.53371;stroke-linecap:round;stroke-miterlimit:4;stroke-dasharray:none;stroke-opacity:1"
       id="rect1932"
       width="285.75"
       height="78.878891"
       x="0"
       y="206.87111"
       rx="5.7140707e-14"
       ry="3.8715212" />
    <image
       sodipodi:absref="/home/alex/Descargas/laptop-1149412_1920.jpg"
       xlink:href="../../../../../../Descargas/laptop-1149412_1920.jpg"
       y="0"
       x="1.4210855e-14"
       id="image7987"
       preserveAspectRatio="none"
       height="206.87111"
       width="285.75" />
    <path
       id="rect2127"
       style="fill:#4cc9f0;fill-opacity:1;stroke:none;stroke-width:4.95064;stroke-linecap:round"
       d="M 0,0 H 285.75 V 62.590624 C 44.997658,58.771627 0,95.714155 0,95.714155 Z"
       sodipodi:nodetypes="ccccc" />
    <path
       style="fill:#f72585;fill-opacity:1;stroke:none;stroke-width:0.264583px;stroke-linecap:butt;stroke-linejoin:miter;stroke-opacity:1"
       d="M 285.75,50.876536 V 0 H 209.27568 C 94.349439,20.712662 15.001346,87.775447 15.001346,87.775447 c 0,0 64.291643,-45.339402 270.748654,-36.898911 z"
       id="path2125"
       sodipodi:nodetypes="ccccc" />
    <path
       id="rect2132"
       style="fill:#560bad;fill-opacity:1;stroke:none;stroke-width:8.71855;stroke-linecap:round"
       d="M 0,0 H 141.27588 L 0,75.879217 Z"
       sodipodi:nodetypes="cccc" />
    <path
       id="rect2135"
       style="fill:#480ca8;fill-opacity:1;stroke:none;stroke-width:5.04449;stroke-linecap:round"
       d="M 0,0 70.637939,37.93961 0,75.879219 Z"
       sodipodi:nodetypes="cccc" />
    <g
       id="g2123"
       transform="matrix(0.97690286,0,0,0.97690286,-8.1597302,-15.104607)">
      <circle
         style="fill:#3a0ca3;stroke:#3a0ca3;stroke-width:1.98421;stroke-linecap:round"
         id="path1465"
         cx="64.067719"
         cy="76.978798"
         r="37.859661" />
      <path
         style="fill:#ffffff;fill-opacity:1;stroke:#3a0ca3;stroke-width:0.905902;stroke-linecap:butt;stroke-linejoin:miter;stroke-miterlimit:4;stroke-dasharray:none;stroke-opacity:1"
         d="m 50.251169,76.502797 h 27.633099 c 0,0 5.444019,-13.085946 0,-18.529964 -5.444023,-5.444019 -22.224606,-5.448575 -27.664079,0 -5.439472,5.448575 0.03098,18.529964 0.03098,18.529964 z"
         id="path1466"
         sodipodi:nodetypes="cczzc" />
      <path
         style="fill:#ffffff;fill-opacity:1;stroke:#3a0ca3;stroke-width:0.905902;stroke-linecap:butt;stroke-linejoin:miter;stroke-miterlimit:4;stroke-dasharray:none;stroke-opacity:1"
         d="m 58.516563,63.59524 -1.650592,3.832128 h 14.576252 l -1.785217,-4.14467 z"
         id="path1428" />
      <path
         style="fill:#ffffff;fill-opacity:1;stroke:#3a0ca3;stroke-width:0.905902;stroke-linecap:butt;stroke-linejoin:miter;stroke-miterlimit:4;stroke-dasharray:none;stroke-opacity:1"
         d="m 56.865971,67.427368 c -8.62021,4.866259 -13.171683,2.264349 -13.171683,9.493659 v 9.47632 l 40.746862,0.13288 v -9.6092 c 0,-6.32529 -3.795304,-3.84405 -12.998927,-9.493659 z"
         id="path1430"
         sodipodi:nodetypes="ccccccc" />
      <rect
         style="fill:#ffffff;fill-opacity:1;stroke:#3a0ca3;stroke-width:0.905902;stroke-linecap:round;stroke-miterlimit:4;stroke-dasharray:none;stroke-opacity:1"
         id="rect1468"
         width="48.077457"
         height="12.554794"
         x="40.028992"
         y="81.941383" />
      <path
         id="rect1432"
         style="fill:#ffffff;fill-opacity:1;stroke:#3a0ca3;stroke-width:0.905902;stroke-linecap:round;stroke-miterlimit:4;stroke-dasharray:none;stroke-opacity:1"
         d="m 58.516563,63.59524 5.551159,2.779537 v 3.68912 l -7.201751,-2.636529"
         sodipodi:nodetypes="cccc" />
      <path
         id="rect1441"
         style="fill:#ffffff;fill-opacity:1;stroke:#3a0ca3;stroke-width:0.905902;stroke-linecap:round;stroke-miterlimit:4;stroke-dasharray:none;stroke-opacity:1"
         d="m 60.89758,84.880267 3.170142,-13.73985 3.348646,13.61316 -3.348646,3.4652 z"
         sodipodi:nodetypes="ccccc" />
      <rect
         style="fill:#ffffff;fill-opacity:1;stroke:#3a0ca3;stroke-width:0.905902;stroke-linecap:round;stroke-miterlimit:4;stroke-dasharray:none;stroke-opacity:1"
         id="rect1444"
         width="27.633102"
         height="17.900206"
         x="50.34042"
         y="73.989197" />
      <path
         id="path1464"
         style="fill:#ffffff;fill-opacity:1;stroke:#3a0ca3;stroke-width:0.905902;stroke-linecap:round;stroke-miterlimit:4;stroke-dasharray:none;stroke-opacity:1"
         d="m 62.986518,84.681357 c -0.85737,-0.48014 -0.929524,-0.66432 -0.929524,-1.77481 0,-1.1105 0.900233,-2.01074 2.010728,-2.01074 1.110494,0 2.010727,0.90024 2.010727,2.01074 0,1.11049 -0.05812,1.27058 -0.92203,1.77435"
         sodipodi:nodetypes="csssc" />
      <rect
         style="fill:#ffffff;fill-opacity:1;stroke:#3a0ca3;stroke-width:0.656253;stroke-linecap:round;stroke-miterlimit:4;stroke-dasharray:none;stroke-opacity:1"
         id="rect1472"
         width="0.10656726"
         height="2.265363"
         x="-64.121002"
         y="83.737953"
         transform="scale(-1,1)" />
      <path
         id="path1474"
         style="fill:#ffffff;fill-opacity:1;stroke:#3a0ca3;stroke-width:0.905902;stroke-linecap:round;stroke-miterlimit:4;stroke-dasharray:none;stroke-opacity:1"
         d="m 69.791626,63.59524 -5.551159,2.779537 v 3.68912 l 7.201756,-2.636529"
         sodipodi:nodetypes="cccc" />
      <rect
         style="fill:#ffffff;fill-opacity:1;stroke:#3a0ca3;stroke-width:0.905902;stroke-linecap:round;stroke-miterlimit:4;stroke-dasharray:none;stroke-opacity:1"
         id="rect1437"
         width="2.7335775"
         height="2.7335775"
         x="93.478592"
         y="2.8731492"
         transform="rotate(45)" />
      <path
         id="path1402"
         style="fill:#ffffff;fill-opacity:1;stroke:#3a0ca3;stroke-width:0.905902;stroke-linecap:round;stroke-miterlimit:4;stroke-dasharray:none;stroke-opacity:1"
         d="m 72.567461,56.79964 c -1.123853,5.305444 -3.805465,9.393862 -8.499739,9.393862 -4.694275,0 -7.542316,-4.276695 -8.49974,-9.393862 -0.954136,-5.099597 3.805465,-9.393863 8.49974,-9.393863 4.694274,0 9.574871,4.3184 8.499739,9.393863 z"
         sodipodi:nodetypes="sssss" />
      <text
         xml:space="preserve"
         style="font-style:normal;font-variant:normal;font-weight:normal;font-stretch:normal;font-size:8.0535px;line-height:1.25;font-family:Cabin;-inkscape-font-specification:'Cabin, Normal';font-variant-ligatures:normal;font-variant-caps:normal;font-variant-numeric:normal;font-variant-east-asian:normal;fill:#ffffff;fill-opacity:1;stroke:none;stroke-width:0.0479374"
         x="41.692268"
         y="103.53384"
         id="text858"><tspan
           sodipodi:role="line"
           id="tspan862"
           x="41.692268"
           y="103.53384"
           style="fill:#ffffff;fill-opacity:1;stroke-width:0.0479374">Techno-Craft</tspan></text>
    </g>
    <path
       id="path1048"
       style="fill:#3a0ca3;fill-opacity:1;stroke:none;stroke-width:3.2933;stroke-linecap:round"
       d="M 0,285.75 H 285.75 V 258.05218 C 38.213501,277.13087 0,241.5901 0,241.5901 Z"
       sodipodi:nodetypes="ccccc" />
    <rect
       style="fill:#f72585;fill-opacity:1;stroke:none;stroke-width:1.25009;stroke-linecap:round;stroke-miterlimit:4;stroke-dasharray:none;stroke-opacity:1"
       id="rect1942"
       width="108.18516"
       height="26.544741"
       x="-285.75"
       y="84.135361"
       rx="7.5883791e-14"
       ry="17.430689"
       transform="scale(-1,1)" />
    <circle
       style="fill:#f5f5f5;fill-opacity:1;stroke:#f72585;stroke-width:3;stroke-linecap:round;stroke-miterlimit:4;stroke-dasharray:none;stroke-opacity:1"
       id="path1924"
       cx="-161.23743"
       cy="97.40773"
       r="25.645363"
       transform="scale(-1,1)" />
    <g
       id="g2728"
       inkscape:label="coronavirus-act-responsibly-publicdomainvectors.org"
       transform="matrix(-0.16120868,0,0,-0.16120868,207.38508,153.2631)">
      <path
         d="m 376.15755,404.0054 c 4.969,-6.552 3.684,-15.89 -2.867,-20.858 -3.301,-2.502 -7.307,-3.418 -11.104,-2.874 -5.011,0.717 -9.584,-0.466 -13.617,-3.524 l -10.883,-8.251 c -3.419,-2.593 -9.465,5.501 -6.103,8.051 l 10.883,8.25 c 4.033,3.058 6.406,7.14 7.068,12.159 0.502,3.805 2.466,7.415 5.766,9.916 6.55,4.968 15.89,3.683 20.857,-2.869"
         style="fill:#157ea0;fill-opacity:1;fill-rule:evenodd;stroke:none"
         id="path2740"
         inkscape:connector-curvature="0" />
      <path
         d="m 380.33555,276.8074 c -4.528,-6.864 -13.76,-8.758 -20.625,-4.23 -3.455,2.279 -5.653,5.752 -6.403,9.517 -0.99,4.963 -3.626,8.88 -7.852,11.667 l -11.4,7.52 c -3.583,2.362 2.041,10.755 5.561,8.433 l 11.401,-7.519 c 4.226,-2.787 8.865,-3.668 13.818,-2.623 3.756,0.791 7.812,0.141 11.269,-2.14 6.864,-4.527 8.758,-13.76 4.231,-20.625"
         style="fill:#157ea0;fill-opacity:1;fill-rule:evenodd;stroke:none"
         id="path2742"
         inkscape:connector-curvature="0" />
      <path
         d="m 198.89755,273.2194 c -4.795,6.68 -3.266,15.981 3.412,20.777 3.366,2.415 7.393,3.226 11.176,2.582 4.991,-0.848 9.592,0.216 13.703,3.168 l 11.096,7.964 c 3.485,2.503 9.318,-5.746 5.891,-8.206 l -11.094,-7.965 c -4.113,-2.952 -6.592,-6.971 -7.385,-11.97 -0.602,-3.79 -2.657,-7.347 -6.021,-9.763 -6.68,-4.794 -15.983,-3.267 -20.778,3.413"
         style="fill:#157ea0;fill-opacity:1;fill-rule:evenodd;stroke:none"
         id="path2744"
         inkscape:connector-curvature="0" />
      <path
         d="m 186.03855,378.1914 c 3.041,7.64 11.699,11.367 19.338,8.326 3.847,-1.531 6.702,-4.486 8.201,-8.018 1.976,-4.661 5.351,-7.963 10.055,-9.834 l 12.689,-5.051 c 3.986,-1.588 0.184,-10.947 -3.737,-9.387 l -12.688,5.051 c -4.704,1.871 -9.425,1.793 -14.063,-0.234 -3.516,-1.537 -7.621,-1.723 -11.468,-0.193 -7.64,3.041 -11.368,11.701 -8.327,19.34"
         style="fill:#157ea0;fill-opacity:1;fill-rule:evenodd;stroke:none"
         id="path2746"
         inkscape:connector-curvature="0" />
      <path
         d="m 288.38255,447.6084 c 8.222,0 14.887,-6.666 14.887,-14.887 0,-4.142 -1.69,-7.888 -4.419,-10.586 -3.597,-3.56 -5.417,-7.916 -5.417,-12.98 v -13.656 c 0,-4.292 -10.103,-4.219 -10.103,0 v 13.656 c 0,5.064 -1.819,9.42 -5.417,12.98 -2.729,2.698 -4.418,6.444 -4.418,10.586 0,8.221 6.664,14.887 14.887,14.887"
         style="fill:#157ea0;fill-opacity:1;fill-rule:evenodd;stroke:none"
         id="path2748"
         inkscape:connector-curvature="0" />
      <path
         d="m 288.38455,269.7494 c 37.289,0 67.705,30.415 67.705,67.706 0,37.291 -30.416,67.706 -67.705,67.706 -37.292,0 -67.707,-30.415 -67.707,-67.706 0,-37.291 30.415,-67.706 67.707,-67.706"
         style="fill:#45b8df;fill-opacity:1;fill-rule:evenodd;stroke:none"
         id="path2750"
         inkscape:connector-curvature="0" />
      <path
         d="m 337.71855,383.8174 c 11.388,-12.114 18.369,-28.423 18.369,-46.362 0,-37.393 -30.313,-67.706 -67.705,-67.706 -26.597,0 -49.608,15.339 -60.68,37.65 12.35,-13.136 29.883,-21.344 49.337,-21.344 37.391,0 67.705,30.313 67.705,67.707 0,10.795 -2.531,20.999 -7.026,30.055"
         style="fill:#35aed7;fill-opacity:1;fill-rule:evenodd;stroke:none"
         id="path2752"
         inkscape:connector-curvature="0" />
      <path
         d="m 273.84755,397.7174 c 19.58,0 31.328,-15.871 26.246,-35.449 -5.083,-19.577 -25.074,-35.449 -44.651,-35.449 -19.577,0 -31.328,15.872 -26.246,35.449 5.083,19.578 25.074,35.449 44.651,35.449"
         style="fill:#55c2e7;fill-opacity:1;fill-rule:evenodd;stroke:none"
         id="path2754"
         inkscape:connector-curvature="0" />
      <path
         d="m 237.44855,423.6684 c 7.178,4.014 16.248,1.45 20.262,-5.727 2.022,-3.614 2.375,-7.708 1.31,-11.394 -1.402,-4.865 -0.838,-9.541 1.608,-13.974 l 4.622,-8.378 c 2.073,-3.758 -6.781,-8.626 -8.818,-4.931 l -4.621,8.377 c -2.447,4.434 -6.187,7.334 -11.066,8.685 -3.697,1.023 -7.001,3.467 -9.023,7.081 -4.014,7.176 -1.45,16.247 5.726,20.261"
         style="fill:#157ea0;fill-opacity:1;fill-rule:evenodd;stroke:none"
         id="path2756"
         inkscape:connector-curvature="0" />
      <path
         d="m 387.42555,352.1954 c 1.017,-8.159 -4.774,-15.598 -12.932,-16.616 -4.108,-0.513 -8.035,0.702 -11.051,3.074 -3.976,3.132 -8.521,4.368 -13.549,3.771 l -9.503,-1.129 c -4.26,-0.506 -5.44,9.528 -1.25,10.025 l 9.503,1.129 c 5.028,0.598 9.121,2.971 12.209,6.983 2.34,3.041 5.848,5.183 9.957,5.695 8.16,1.017 15.598,-4.773 16.616,-12.932"
         style="fill:#157ea0;fill-opacity:1;fill-rule:evenodd;stroke:none"
         id="path2758"
         inkscape:connector-curvature="0" />
      <path
         d="m 284.69855,237.3894 c -8.209,0.497 -14.459,7.553 -13.963,15.761 0.25,4.133 2.164,7.769 5.05,10.297 3.808,3.338 5.858,7.578 6.192,12.628 l 0.635,9.549 c 0.285,4.282 10.364,3.6 10.084,-0.61 l -0.633,-9.547 c -0.336,-5.053 1.246,-9.514 4.623,-13.285 2.561,-2.858 4.022,-6.699 3.772,-10.832 -0.496,-8.208 -7.554,-14.458 -15.76,-13.961"
         style="fill:#157ea0;fill-opacity:1;fill-rule:evenodd;stroke:none"
         id="path2760"
         inkscape:connector-curvature="0" />
      <path
         d="m 189.24355,323.3774 c -0.964,8.166 4.875,15.567 13.041,16.529 4.112,0.485 8.029,-0.756 11.029,-3.148 3.957,-3.158 8.494,-4.425 13.525,-3.862 l 9.509,1.067 c 4.265,0.477 5.376,-9.564 1.183,-10.034 l -9.508,-1.066 c -5.032,-0.563 -9.142,-2.908 -12.256,-6.9 -2.361,-3.027 -5.882,-5.144 -9.994,-5.628 -8.166,-0.964 -15.566,4.876 -16.529,13.042"
         style="fill:#157ea0;fill-opacity:1;fill-rule:evenodd;stroke:none"
         id="path2762"
         inkscape:connector-curvature="0" />
      <path
         d="m 320.91255,403.1074 c 7.307,-3.767 10.179,-12.746 6.413,-20.054 -1.898,-3.681 -5.117,-6.236 -8.777,-7.384 -4.831,-1.516 -8.418,-4.57 -10.763,-9.056 l -1.035,-1.978 c -1.988,-3.803 -10.935,0.89 -8.98,4.629 l 1.035,1.978 c 2.344,4.486 2.698,9.206 1.129,14.021 -1.187,3.647 -0.975,7.752 0.922,11.431 3.768,7.31 12.746,10.18 20.056,6.413"
         style="fill:#157ea0;fill-opacity:1;fill-rule:evenodd;stroke:none"
         id="path2764"
         inkscape:connector-curvature="0" />
      <path
         d="m 335.50055,281.3464 c -6.38,-5.188 -15.757,-4.22 -20.945,2.16 -2.611,3.213 -3.662,7.185 -3.247,11 0.546,5.033 -0.813,9.543 -3.984,13.488 l -1.399,1.742 c -2.688,3.345 5.197,9.661 7.839,6.373 l 1.398,-1.741 c 3.173,-3.946 7.353,-6.161 12.391,-6.653 3.82,-0.372 7.497,-2.212 10.108,-5.425 5.185,-6.381 4.22,-15.757 -2.161,-20.944"
         style="fill:#157ea0;fill-opacity:1;fill-rule:evenodd;stroke:none"
         id="path2766"
         inkscape:connector-curvature="0" />
      <path
         d="m 244.88455,278.4944 c -6.539,4.986 -7.795,14.328 -2.811,20.867 2.51,3.292 6.127,5.246 9.933,5.737 5.02,0.65 9.086,3.029 12.178,7.036 l 1.365,1.766 c 2.621,3.399 10.61,-2.786 8.034,-6.125 l -1.365,-1.766 c -3.094,-4.009 -4.266,-8.595 -3.563,-13.608 0.533,-3.8 -0.393,-7.803 -2.904,-11.096 -4.987,-6.539 -14.328,-7.797 -20.867,-2.811"
         style="fill:#157ea0;fill-opacity:1;fill-rule:evenodd;stroke:none"
         id="path2768"
         inkscape:connector-curvature="0" />
      <path
         d="m 277.63255,326.6844 c 8.101,0 14.709,6.609 14.709,14.71 0,8.104 -6.608,14.712 -14.709,14.712 -8.104,0 -14.712,-6.608 -14.712,-14.712 0,-8.101 6.608,-14.71 14.712,-14.71"
         style="fill:#157ea0;fill-opacity:1;fill-rule:evenodd;stroke:none"
         id="path2770"
         inkscape:connector-curvature="0" />
      <path
         d="m 328.6689,306.1707 c -4.52615,-0.7936 -8.19668,-4.39896 -8.19668,-8.05057 0,-3.65266 3.67053,-5.9704 8.19668,-5.1768 4.52825,0.7936 8.19668,4.39792 8.19668,8.05163 0,3.65161 -3.66843,5.96934 -8.19668,5.17574 m -42.66311,-40.42735 c -4.52509,-0.79466 -8.19563,-4.39897 -8.19563,-8.05163 0,-3.65266 3.67054,-5.96934 8.19563,-5.17574 4.5272,0.7936 8.19774,4.39791 8.19774,8.05057 0,3.65266 -3.67054,5.97145 -8.19774,5.1768 m -33.15987,39.12291 c -4.52825,-0.7936 -8.19773,-4.39791 -8.19773,-8.05058 0,-3.65161 3.66948,-5.97039 8.19773,-5.17574 4.52615,0.7936 8.19458,4.39896 8.19458,8.05057 0,3.65266 -3.66843,5.9704 -8.19458,5.17575 m -44.3407,-8.38273 c -4.5272,-0.79465 -8.19773,-4.40002 -8.19773,-8.05058 0,-3.65371 3.67053,-5.97144 8.19773,-5.17679 4.5272,0.7936 8.19668,4.39896 8.19668,8.05057 0,3.65266 -3.66948,5.97145 -8.19668,5.1768 m -8.01063,44.89884 c -4.5272,-0.79255 -8.19773,-4.39896 -8.19773,-8.05057 0,-3.65266 3.67053,-5.9704 8.19773,-5.1768 4.5272,0.79466 8.19668,4.39897 8.19668,8.05163 0,3.65161 -3.66948,5.9704 -8.19668,5.17574 m -3.79036,50.4488 c -4.52615,-0.79465 -8.19668,-4.39897 -8.19668,-8.05163 0,-3.65161 3.67053,-5.96934 8.19668,-5.17679 4.5272,0.79465 8.19773,4.39896 8.19773,8.05162 0,3.65266 -3.67053,5.9704 -8.19773,5.1768 m 47.19871,39.721 c -4.5272,-0.7936 -8.19563,-4.39791 -8.19563,-8.04953 0,-3.65371 3.66843,-5.97039 8.19563,-5.17679 4.52825,0.7936 8.19984,4.39791 8.19984,8.05057 0,3.65372 -3.67159,5.97145 -8.19984,5.17575 m 34.46642,-72.84409 c -4.52825,-0.7936 -8.19668,-4.39896 -8.19668,-8.05057 0,-3.65266 3.66843,-5.9704 8.19668,-5.1768 4.5272,0.79466 8.19879,4.39897 8.19879,8.05163 0,3.65266 -3.67159,5.96934 -8.19879,5.17574 m 91.00754,56.35613 c -4.52719,-0.79466 -8.19668,-4.39792 -8.19668,-8.05058 0,-3.65266 3.66949,-5.96934 8.19668,-5.17574 4.52826,0.7936 8.19774,4.39791 8.19774,8.04952 0,3.65371 -3.66948,5.9704 -8.19774,5.1768 m -52.44172,-3.96485 c -4.5272,-0.7936 -8.19879,-4.39791 -8.19879,-8.05058 0,-3.65266 3.67159,-5.97039 8.19879,-5.17574 4.52615,0.7936 8.19563,4.39791 8.19563,8.05057 0,3.65267 -3.66948,5.9704 -8.19563,5.17575 m -27.57314,44.3407 c -4.5272,-0.7936 -8.19773,-4.39896 -8.19773,-8.05058 0,-3.65266 3.67053,-5.97039 8.19773,-5.17784 4.52615,0.79465 8.19563,4.39896 8.19563,8.05162 0,3.65266 -3.66948,5.9704 -8.19563,5.1768 m 85.1391,-154.76464 c -4.5272,-0.7936 -8.19773,-4.39897 -8.19773,-8.05163 0,-3.65266 3.67053,-5.97039 8.19773,-5.17574 4.5251,0.79255 8.19563,4.39791 8.19563,8.04952 0,3.65371 -3.67053,5.9704 -8.19563,5.17785 m 4.84254,68.09299 c -4.52615,-0.79465 -8.19773,-4.39791 -8.19773,-8.05162 0,-3.65162 3.67158,-5.9704 8.19773,-5.17575 4.5272,0.7936 8.19773,4.39896 8.19773,8.05163 0,3.65161 -3.67053,5.96934 -8.19773,5.17574"
         style="fill:#2195bc;fill-opacity:1;fill-rule:evenodd;stroke:none;stroke-width:1.05113"
         id="path2772"
         inkscape:connector-curvature="0" />
    </g>
    <text
       xml:space="preserve"
       id="text8071"
       style="font-style:normal;font-weight:normal;font-size:11.2889px;line-height:1.25;font-family:'Liberty Sans';white-space:pre;shape-inside:url(#rect8073);fill:#f5f5f5;fill-opacity:1;stroke:none;-inkscape-font-specification:'Liberty Sans, Normal';font-stretch:normal;font-variant:normal;font-variant-ligatures:normal;font-variant-caps:normal;font-variant-numeric:normal;font-variant-east-asian:normal;"
       transform="translate(-4.3233449,7.1364)"><tspan
         x="10.660156"
         y="271.09253"><tspan
           style="font-style:normal;font-variant:normal;font-weight:normal;font-stretch:normal;font-size:11.2889px;font-family:'Liberty Sans';-inkscape-font-specification:'Liberty Sans, Normal';font-variant-ligatures:normal;font-variant-caps:normal;font-variant-numeric:normal;font-variant-east-asian:normal;fill:#f5f5f5;fill-opacity:1">Techno-Cafth S.A de C.V.</tspan></tspan></text>
    <path
       style="fill:#f72585;fill-opacity:1;stroke:none;stroke-width:0.264583px;stroke-linecap:butt;stroke-linejoin:miter;stroke-opacity:1"
       d="m 0,183.1925 v 38.6194 c 29.897308,-18.57613 285.75,-14.94079 285.75,-14.94079 v -60.56887 c 0,0 -69.32533,67.02085 -285.75,36.89026 z"
       id="path1018"
       sodipodi:nodetypes="ccccc" />
    <path
       style="fill:#4cc9f0;fill-opacity:1;stroke:none;stroke-width:0.264583px;stroke-linecap:butt;stroke-linejoin:miter;stroke-opacity:1"
       d="M 285.75,206.87111 V 155.99457 C 258.09857,208.90408 44.581957,195.97295 18.159107,216.74614 30.482687,211.98524 191.4167,206.00309 285.75,206.87111 Z"
       id="path1032"
       sodipodi:nodetypes="cccc" />
    <text
       xml:space="preserve"
       id="text8063"
       style="font-style:normal;font-variant:normal;font-weight:normal;font-stretch:normal;font-size:22.5778px;line-height:1.25;font-family:Cabin;-inkscape-font-specification:'Cabin, Normal';font-variant-ligatures:normal;font-variant-caps:normal;font-variant-numeric:normal;font-variant-east-asian:normal;text-align:center;white-space:pre;shape-inside:url(#rect8065);fill:#3a0ca3;fill-opacity:1;stroke:none"
       x="47.575756"
       y="0"
       transform="translate(-1.8965132,-12.066413)"><tspan
         x="59.481923"
         y="229.61376"><tspan
           style="font-style:normal;font-variant:normal;font-weight:normal;font-stretch:normal;font-size:22.5778px;font-family:Cabin;-inkscape-font-specification:'Cabin, Normal';font-variant-ligatures:normal;font-variant-caps:normal;font-variant-numeric:normal;font-variant-east-asian:normal;text-align:center;text-anchor:middle;fill:#3a0ca3;fill-opacity:1">Asistencia Técnica
</tspan></tspan><tspan
         x="107.15107"
         y="257.83602"><tspan
           style="font-style:normal;font-variant:normal;font-weight:normal;font-stretch:normal;font-size:22.5778px;font-family:Cabin;-inkscape-font-specification:'Cabin, Normal';font-variant-ligatures:normal;font-variant-caps:normal;font-variant-numeric:normal;font-variant-east-asian:normal;text-align:center;text-anchor:middle;fill:#3a0ca3;fill-opacity:1">Remota</tspan></tspan></text>
    <text
       xml:space="preserve"
       id="text8137"
       style="font-style:normal;font-variant:normal;font-weight:normal;font-stretch:normal;font-size:12.7px;line-height:1.25;font-family:'Liberty Sans';-inkscape-font-specification:'Liberty Sans, Normal';font-variant-ligatures:normal;font-variant-caps:normal;font-variant-numeric:normal;font-variant-east-asian:normal;text-align:center;white-space:pre;shape-inside:url(#rect8139);fill:#f5f5f5;fill-opacity:1;stroke:none"
       x="51.014809"
       y="0"
       transform="translate(-42.975517,11.520599)"><tspan
         x="227.57822"
         y="11.272784"><tspan
           style="font-style:normal;font-variant:normal;font-weight:normal;font-stretch:normal;font-size:12.7px;font-family:'Liberty Sans';-inkscape-font-specification:'Liberty Sans, Normal';font-variant-ligatures:normal;font-variant-caps:normal;font-variant-numeric:normal;font-variant-east-asian:normal;text-align:center;text-anchor:middle;fill:#f5f5f5;fill-opacity:1">No hay Errores,
</tspan></tspan><tspan
         x="218.16484"
         y="27.147784"><tspan
           style="font-style:normal;font-variant:normal;font-weight:normal;font-stretch:normal;font-size:12.7px;font-family:'Liberty Sans';-inkscape-font-specification:'Liberty Sans, Normal';font-variant-ligatures:normal;font-variant-caps:normal;font-variant-numeric:normal;font-variant-east-asian:normal;text-align:center;text-anchor:middle;fill:#f5f5f5;fill-opacity:1">solo Oportunidades</tspan></tspan></text>
    <text
       xml:space="preserve"
       id="text8358"
       style="font-style:normal;font-variant:normal;font-weight:normal;font-stretch:normal;font-size:7.76111px;line-height:1.25;font-family:'Liberty Sans';-inkscape-font-specification:'Liberty Sans, Normal';font-variant-ligatures:normal;font-variant-caps:normal;font-variant-numeric:normal;font-variant-east-asian:normal;white-space:pre;shape-inside:url(#rect8360);fill:#f5f5f5;fill-opacity:1;stroke:none;"
       transform="translate(-107.82037,0.74943357)"><tspan
         x="313.625"
         y="89.883063"><tspan
           style="font-style:normal;font-variant:normal;font-weight:normal;font-stretch:normal;font-size:7.76111px;font-family:'Liberty Sans';-inkscape-font-specification:'Liberty Sans, Normal';font-variant-ligatures:normal;font-variant-caps:normal;font-variant-numeric:normal;font-variant-east-asian:normal;fill:#f5f5f5;fill-opacity:1">¡No te Arriesgues!</tspan></tspan></text>
    <text
       xml:space="preserve"
       id="text8364"
       style="font-style:normal;font-weight:normal;font-size:10.5833px;line-height:1.25;font-family:sans-serif;white-space:pre;shape-inside:url(#rect8366);fill:#3f37c9;fill-opacity:1;stroke:none;"
       transform="translate(-146.9615,-0.43856316)"><tspan
         x="334.69727"
         y="101.73679"><tspan
           style="fill:#3f37c9;fill-opacity:1">#QuédateEnCasa</tspan></tspan></text>
    <text
       xml:space="preserve"
       id="text8372"
       style="font-style:normal;font-variant:normal;font-weight:normal;font-stretch:normal;font-size:7.76111px;line-height:1.25;font-family:'Liberty Sans';-inkscape-font-specification:'Liberty Sans, Normal';font-variant-ligatures:normal;font-variant-caps:normal;font-variant-numeric:normal;font-variant-east-asian:normal;white-space:pre;shape-inside:url(#rect8374);fill:#f5f5f5;fill-opacity:1;stroke:none;"
       transform="translate(-104.68636,18.288825)"><tspan
         x="313.625"
         y="89.883063"><tspan
           style="font-style:normal;font-variant:normal;font-weight:normal;font-stretch:normal;font-size:7.76111px;font-family:'Liberty Sans';-inkscape-font-specification:'Liberty Sans, Normal';font-variant-ligatures:normal;font-variant-caps:normal;font-variant-numeric:normal;font-variant-east-asian:normal;fill:#f5f5f5;fill-opacity:1">y Potencia tu PC</tspan></tspan></text>
  </g>
</svg>
